<svg xmlns="http://www.w3.org/2000/svg" version="1.1" xmlns:xlink="http://www.w3.org/1999/xlink" width="52" height="51"><svg width="52" height="51" viewBox="0 0 52 51" fill="none" xmlns="http://www.w3.org/2000/svg">
  <path d="M45.506 18.3C44.506 16.5 43.206 14.5 41.405 12.4C40.506 11.4 39.605 10.5 38.705 9.8C37.905 9.1 37.105 8.5 36.305 8C36.305 7.8 36.405 7.7 36.305 7.5C36.005 5.5 35.005 3.8 33.105 2.3C31.105 0.8 28.605 0 25.705 0C22.805 0 20.305 0.8 18.305 2.3C16.305 3.9 15.305 5.7 15.205 7.8C15.205 7.8 15.205 7.9 15.205 8C14.405 8.5 13.605 9.2 12.805 9.8C11.805 10.5 10.905 11.4 10.105 12.4C8.20504 14.5 6.80504 16.5 6.00504 18.4V18.3C5.00504 20 4.50504 21.9 4.10504 23.9C4.00504 24.2 4.00504 24.5 4.00504 24.8C1.60504 24.9 0.505039 26.2 0.505039 28.5V34.2C0.404039 36.5 1.60504 37.7 3.80504 38L3.60504 47C3.60504 48.1 3.80504 48.9 4.30504 49.4C5.00504 50.3 6.00504 50.8 7.40504 50.8H44.006C46.506 50.8 47.806 49.5 47.806 47V40.7C47.806 39.8 47.806 38.9 47.806 38C50.006 37.9 51.106 36.6 51.106 34.2V28.5C51.106 26.1 50.006 24.9 47.606 24.8H47.506C47.506 24.5 47.405 24.2 47.405 23.9V23.8L47.305 23.7C47.006 21.8 46.405 19.9 45.506 18.3ZM37.806 10.9C38.606 11.7 39.406 12.5 40.306 13.4C42.006 15.4 43.306 17.3 44.106 19C44.806 20.3 45.306 21.7 45.706 23.2C43.906 22.9 41.906 22.2 39.806 20.9C38.306 19.9 36.006 18.3 33.306 16C30.606 13.9 28.606 11.5 27.306 8.8C27.206 8.7 27.106 8.5 26.906 8.5C26.706 8.4 26.507 8.4 26.406 8.5C26.106 8.5 26.007 8.7 25.906 8.8C24.606 11.4 22.606 13.8 19.906 16C17.106 18.3 14.806 20 13.106 21C10.406 22.5 8.00604 23.3 5.80604 23.2C6.10604 21.7 6.60604 20.4 7.30604 19C8.20604 17.3 9.40604 15.4 11.206 13.4C12.006 12.5 12.906 11.7 13.806 10.9C16.906 8.2 20.606 6.8 24.606 6.5H24.706C25.106 6.5 25.406 6.5 25.706 6.5C26.606 6.5 27.606 6.5 28.406 6.7C31.905 7.2 35.006 8.6 37.806 10.9ZM39.006 22.2C41.506 23.7 43.806 24.5 46.006 24.7C46.006 24.9 46.006 25.2 46.006 25.4C46.006 25.4 46.006 25.5 46.106 25.5C46.106 25.8 46.206 29.5 46.306 36.6C46.306 38 46.306 39.4 46.306 40.7V47C46.306 48.5 45.506 49.3 44.006 49.3H7.40504C6.50604 49.3 5.90504 49 5.50604 48.5C5.20604 48.2 5.10604 47.7 5.10604 47.1L5.40604 25.4C5.50704 25.2 5.50704 24.9 5.50704 24.7C5.60704 24.7 5.70704 24.7 5.80704 24.7C8.30704 24.8 10.907 24 13.807 22.4C15.607 21.3 17.907 19.6 20.907 17.2C23.307 15.2 25.207 13 26.607 10.8C28.107 13.1 29.907 15.3 32.307 17.2C35.105 19.5 37.405 21.2 39.006 22.2ZM47.605 26.3C49.005 26.4 49.605 27.1 49.605 28.5V34.2C49.605 35.6 49.005 36.4 47.805 36.5C47.706 31.4 47.706 28 47.605 26.3ZM32.206 3.5C33.506 4.6 34.406 5.8 34.706 7.1C32.806 6.2 30.806 5.5 28.606 5.2C27.606 5 26.706 5 25.706 5C25.306 5 24.906 5 24.606 5C21.806 5.2 19.106 5.8 16.806 7.1C17.106 5.8 17.906 4.5 19.206 3.5H19.106C20.906 2.2 23.106 1.5 25.706 1.5C28.306 1.5 30.405 2.2 32.206 3.5ZM2.00604 28.5C2.00604 27.2 2.60604 26.4 3.90504 26.4L3.80504 36.4C2.60504 36.2 2.00504 35.5 2.00504 34.2V28.5H2.00604Z" fill="black"></path>
  <path d="M41.1051 24.9C39.6051 23.4 37.9051 22.7 35.9051 22.7C33.8051 22.7 32.1051 23.4 30.6051 24.9C29.4051 26 28.8051 27.4 28.6051 29C26.6051 28.1 24.8051 28.2 22.9051 29.1C22.7051 27.5 22.0061 26.1 20.8051 24.9C19.4051 23.4 17.6051 22.7 15.6051 22.7C13.6051 22.7 11.9051 23.4 10.4051 24.9H10.3051C8.90508 26.4 8.20508 28.1 8.20508 30.1C8.20508 32.2 8.90508 33.9 10.4051 35.4C11.9051 36.8 13.6051 37.5 15.6051 37.5C17.6051 37.5 19.4051 36.8 20.8051 35.4C22.1051 34 22.8051 32.5 22.9051 30.7C23.0061 30.7 23.1051 30.7 23.1051 30.7C24.9051 29.6 26.7051 29.6 28.5051 30.7C28.6051 32.4 29.3051 34 30.6051 35.4C32.1051 36.8 33.8051 37.5 35.9051 37.5C37.9051 37.5 39.6051 36.8 41.1051 35.4C42.5051 33.9 43.3051 32.2 43.3051 30.1C43.3061 28.1 42.5061 26.4 41.1051 24.9ZM39.9051 26.2H39.8051C40.9051 27.2 41.5051 28.5 41.5051 30.1C41.5051 31.7 40.9041 33 39.9041 34.1C38.8041 35.1 37.4041 35.7 35.9041 35.7C34.3041 35.7 33.0051 35.1 31.9041 34.1C30.9041 33.1 30.4041 31.9 30.3041 30.5C30.3041 30.4 30.3041 30.2 30.1041 30C30.3041 29.9 30.3041 29.7 30.3041 29.6C30.4041 28.2 30.9041 27.1 31.9041 26.2C33.0051 25 34.3041 24.5 35.9041 24.5C37.4051 24.5 38.8061 25 39.9051 26.2ZM11.7061 26.2C12.7061 25 14.1061 24.5 15.6061 24.5C17.1061 24.5 18.4061 25 19.6061 26.2H19.5061C20.6061 27.2 21.1061 28.4 21.1061 29.9C21.1061 29.9 21.1061 30 21.2061 30C21.1061 30.1 21.1061 30.2 21.1061 30.3C21.1061 31.7 20.6061 33 19.6061 34.1C18.4061 35.1 17.1061 35.7 15.6061 35.7C14.1061 35.7 12.7061 35.1 11.7061 34.1C10.6061 33 10.0061 31.7 10.0061 30.1C10.0061 28.5 10.6051 27.2 11.7061 26.2Z" fill="black"></path>
  <path d="M36.806 30.1C36.806 29.9 36.606 29.6 36.506 29.4C36.306 29.2 36.006 29.2 35.806 29.2C35.506 29.2 35.306 29.2 35.106 29.4C35.006 29.6 34.906 29.9 34.906 30.1C34.906 30.4 35.007 30.6 35.106 30.7C35.306 30.9 35.506 31 35.806 31C36.006 31 36.306 30.9 36.506 30.7C36.605 30.6 36.806 30.4 36.806 30.1Z" fill="black"></path>
  <path d="M14.605 30.1C14.605 30.4 14.705 30.6 14.905 30.7C15.105 30.9 15.305 31 15.605 31C15.805 31 16.105 30.9 16.205 30.7C16.405 30.6 16.505 30.4 16.505 30.1C16.505 29.9 16.404 29.6 16.205 29.4C16.105 29.2 15.805 29.2 15.605 29.2C15.305 29.2 15.105 29.2 14.905 29.4C14.706 29.6 14.605 29.9 14.605 30.1Z" fill="black"></path>
  <path d="M20.206 18.8C20.106 18.9 20.106 19 20.206 19.2C20.306 19.2 20.406 19.4 20.506 19.4C20.606 19.4 20.806 19.4 20.905 19.4C22.605 18.4 24.205 17.9 25.905 18C27.405 18 28.905 18.5 30.506 19.4C30.606 19.4 30.806 19.4 30.905 19.4C31.006 19.4 31.105 19.2 31.205 19.2C31.305 19 31.305 18.9 31.305 18.8C31.205 18.7 31.105 18.5 31.005 18.5C29.404 17.5 27.605 17 25.904 17C24.104 16.9 22.304 17.4 20.404 18.4C20.306 18.5 20.306 18.6 20.206 18.8Z" fill="black"></path>
  <path d="M22.506 20.2C22.405 20.4 22.405 20.4 22.506 20.6C22.606 20.7 22.606 20.8 22.806 20.9C22.906 20.9 23.006 20.9 23.106 20.9C24.006 20.5 24.906 20.4 25.806 20.4C26.706 20.4 27.606 20.7 28.406 21C28.606 21 28.606 21 28.806 20.9C28.906 20.9 29.106 20.9 29.106 20.7C29.106 20.5 29.106 20.4 29.106 20.3C29.006 20.2 28.906 20.1 28.806 20C27.906 19.7 26.906 19.4 25.906 19.4C24.906 19.4 23.906 19.5 22.806 19.9C22.605 20 22.605 20 22.506 20.2Z" fill="black"></path>
  <path d="M17.905 43.9C17.705 43.5 17.605 43.1 17.605 42.5C17.605 42.2 17.605 42.1 17.405 42C17.305 41.8 17.105 41.7 16.905 41.7C16.605 41.7 16.506 41.8 16.405 42C16.205 42.1 16.105 42.2 16.105 42.5C16.105 43.5 16.305 44.3 16.805 44.8C17.405 45.8 18.505 46.2 19.905 46.2H31.506C34.006 46.2 35.306 45 35.306 42.5C35.306 42.2 35.306 42.1 35.106 42C35.006 41.8 34.806 41.7 34.506 41.7C34.405 41.7 34.206 41.8 34.006 42C33.905 42.1 33.806 42.2 33.806 42.5C33.806 44 33.006 44.7 31.506 44.7H19.905C19.105 44.7 18.405 44.5 17.905 43.9Z" fill="black"></path>
</svg><style>@media (prefers-color-scheme: light) { :root { filter: none; } }
@media (prefers-color-scheme: dark) { :root { filter: invert(100%); } }
</style></svg>